<svg width="99" height="24" viewBox="0 0 99 24" fill="none" xmlns="http://www.w3.org/2000/svg">
<g clip-path="url(#clip0_461_1138)">
<path d="M12.0242 -0.000199633C10.401 0.000973051 8.7949 0.330501 7.30243 0.968557C5.80995 1.60661 4.46198 2.54001 3.33963 3.71257C2.21728 4.88514 1.34374 6.27265 0.771579 7.7916C0.199417 9.31056 -0.0595407 10.9296 0.0102867 12.5512C0.150484 15.571 1.41848 18.4284 3.56363 20.5585C5.70879 22.6886 8.575 23.9364 11.5957 24.0553C11.7405 24.0553 11.8833 24.0553 12.0281 24.0553C13.6216 24.0758 15.2032 23.7796 16.6812 23.184C18.1593 22.5884 19.5043 21.7052 20.6384 20.5856C21.7724 19.466 22.6728 18.1324 23.2873 16.6622C23.9019 15.1919 24.2183 13.6142 24.2183 12.0206C24.2183 10.4271 23.9019 8.84939 23.2873 7.3791C22.6728 5.90881 21.7724 4.5752 20.6384 3.45565C19.5043 2.33609 18.1593 1.45288 16.6812 0.857258C15.2032 0.261634 13.6216 -0.0345405 12.0281 -0.0140839L12.0242 -0.000199633ZM21.287 12.5155C21.1769 14.635 20.3422 16.6523 18.9228 18.2301C17.5033 19.8078 15.5851 20.8503 13.4891 21.1831C11.393 21.5159 9.24624 21.1188 7.40792 20.0582C5.56959 18.9977 4.15121 17.338 3.39005 15.3569C2.6289 13.3758 2.57115 11.1934 3.22646 9.17475C3.88177 7.15615 5.21039 5.4238 6.99005 4.26751C8.76971 3.11123 10.8925 2.60115 13.0032 2.8226C15.1139 3.04406 17.0846 3.98362 18.5855 5.4841C19.4993 6.40435 20.2114 7.50481 20.6765 8.71539C21.1416 9.92598 21.3495 11.2202 21.287 12.5155Z" fill="currentColor"/>
<path d="M12.0364 19.2253C13.9009 19.2222 15.6906 18.4914 17.0243 17.1885C18.358 15.8855 19.1303 14.1134 19.1769 12.2494H4.89587C4.94189 14.1135 5.71409 15.886 7.04791 17.189C8.38172 18.4921 10.1717 19.2227 12.0364 19.2253Z" fill="currentColor"/>
<path d="M47.7565 20.2948V7.87031L42.4963 20.2948H40.0209L34.8084 7.91791V20.2948H32.0315V3.4194H35.8398L41.3141 16.2961L46.7171 3.4194H50.5968V20.2948H47.7565Z" fill="currentColor"/>
<path d="M56.8962 13.6541L59.8714 13.2018C60.5378 13.1066 60.7282 12.7734 60.7282 12.3688C60.7282 11.3929 60.0618 10.6075 58.5464 10.6075C57.0945 10.6075 56.2853 11.5357 56.1663 12.702L53.6433 12.1308C53.8575 10.1314 55.6664 8.34631 58.5226 8.34631C62.0929 8.34631 63.4496 10.3695 63.4496 12.6782V18.4303C63.4422 19.0521 63.49 19.6734 63.5924 20.2868H61.0139C60.9176 19.8011 60.8777 19.3059 60.8949 18.8111C60.3474 19.6918 59.2049 20.6438 57.3246 20.6438C54.8968 20.6438 53.3973 18.9777 53.3973 17.145C53.3973 15.0742 54.9206 13.9397 56.8962 13.6541ZM60.7282 15.4868V14.9632L57.7054 15.4154C56.8486 15.5582 56.1583 16.0342 56.1583 16.9863C56.1583 17.7797 56.7534 18.4858 57.8482 18.4858C59.3954 18.4858 60.7282 17.748 60.7282 15.4868Z" fill="currentColor"/>
<path d="M66.6545 20.2951V8.70374H69.2965V10.1794C69.963 8.98936 71.4149 8.37051 72.724 8.37051C74.2473 8.37051 75.5802 9.06076 76.199 10.4175C77.1035 8.89415 78.4602 8.37051 79.9676 8.37051C82.0621 8.37051 84.0615 9.70341 84.0615 12.7738V20.2951H81.3878V13.2261C81.3878 11.8694 80.6975 10.8459 79.1504 10.8459C77.6985 10.8459 76.7464 11.9884 76.7464 13.4244V20.3031H74.0331V13.2261C74.0331 11.8932 73.3666 10.8459 71.7957 10.8459C70.32 10.8459 69.3917 11.9408 69.3917 13.4244V20.3031L66.6545 20.2951Z" fill="currentColor"/>
<path d="M98.5251 14.4792C98.5251 18.0494 95.9783 20.6438 92.5033 20.6438C89.0282 20.6438 86.5052 18.0494 86.5052 14.4792C86.5052 10.9089 89.052 8.33041 92.5033 8.33041C95.9545 8.33041 98.5251 10.9407 98.5251 14.4792ZM95.7482 14.4792C95.7482 12.0752 94.2249 10.8375 92.5112 10.8375C90.7975 10.8375 89.2742 12.0752 89.2742 14.4792C89.2742 16.8831 90.8213 18.1684 92.5112 18.1684C94.2011 18.1684 95.7403 16.9149 95.7403 14.4792H95.7482Z" fill="currentColor"/>
</g>
<defs>
<clipPath id="clip0_461_1138">
<rect width="98.5714" height="24" fill="currentColor"/>
</clipPath>
</defs>
</svg>
